<?xml version="1.0" encoding="utf-8"?>
<!-- Generator: Adobe Illustrator 16.0.0, SVG Export Plug-In . SVG Version: 6.00 Build 0)  -->
<!DOCTYPE svg PUBLIC "-//W3C//DTD SVG 1.1//EN" "http://www.w3.org/Graphics/SVG/1.1/DTD/svg11.dtd">
<svg version="1.1" id="Layer_1" xmlns="http://www.w3.org/2000/svg" xmlns:xlink="http://www.w3.org/1999/xlink" x="0px" y="0px"
	 width="104.589px" height="107px" viewBox="0 0 104.589 107" enable-background="new 0 0 104.589 107" xml:space="preserve">
<path fill="#F04C23" d="M102.471,43.191c-0.537-1.82-0.702-2.386-35.038-2C56.028,7.206,54.69,7.208,53,7.208
	c-0.747,0-1.391,0.415-1.734,1.022c-1.652,1.829-4.618,8.552-12.922,33.294c-34.337-0.388-34.501,0.18-35.038,2
	c-0.499,1.692-0.672,2.277,26.837,22.634c-9.691,34.168-9.375,34.395-7.935,35.448c0.294,0.215,0.542,0.396,0.965,0.396
	c1.75,0,6.509-3.114,29.95-19.756c23.037,16.352,27.744,19.424,29.481,19.423c0.422,0,0.67-0.181,0.965-0.396
	c1.44-1.053,1.756-1.28-7.935-35.448C103.143,45.468,102.97,44.884,102.471,43.191z"/>
</svg>
